<?xml version="1.0" encoding="iso-8859-1"?>
<!-- Generator: Adobe Illustrator 16.0.0, SVG Export Plug-In . SVG Version: 6.00 Build 0)  -->
<!DOCTYPE svg PUBLIC "-//W3C//DTD SVG 1.1//EN" "http://www.w3.org/Graphics/SVG/1.1/DTD/svg11.dtd">
<svg version="1.1" id="Capa_1" xmlns="http://www.w3.org/2000/svg" xmlns:xlink="http://www.w3.org/1999/xlink" x="0px" y="0px"
	 width="592.801px" height="592.801px" viewBox="0 0 592.801 592.801" style="enable-background:new 0 0 592.801 592.801;"
	 xml:space="preserve" fill="#f7f7f7">
<g>
	<g>
		<path d="M133.9,325.1H459c53.5,0,95.601-42.1,95.601-95.6c0-40.2-23-72.7-57.4-88c0-57.4-47.8-103.3-105.2-103.3
			c-21,0-38.199,5.7-55.5,15.3C311.601,21,273.4,0,229.4,0C154.8,0,95.5,59.3,95.5,133.9c0,1.9,0,5.7,0,7.6
			c-34.4,15.3-57.4,47.8-57.4,88C38.3,283.1,80.4,325.1,133.9,325.1z M116.7,154.9c-1.9-7.7-1.9-13.4-1.9-21
			c0-63.1,51.6-114.8,114.8-114.8c44,0,84.1,24.9,103.3,63.1c15.3-15.3,36.3-24.9,59.3-24.9c47.8,0,86.101,38.2,86.101,86.1
			c0,3.8,0,7.6,0,11.5c32.5,7.6,57.399,38.2,57.399,74.6c0,42.1-34.399,76.5-76.5,76.5H133.9c-42.1,0-76.5-34.4-76.5-76.5
			C57.4,193.2,82.3,162.6,116.7,154.9z"/>
		<path d="M325.101,439.9H95.7V459h229.5c32.5,0,57.4-24.9,57.4-57.4s-24.9-57.4-57.4-57.4s-57.4,24.9-57.4,57.4h19.1
			c0-21,17.2-38.199,38.2-38.199s38.2,17.199,38.2,38.199S346.2,439.9,325.101,439.9z"/>
		<path d="M478.101,344.301c-42.101,0-76.5,34.398-76.5,76.5h19.1c0-32.5,24.9-57.4,57.4-57.4s57.399,24.9,57.399,57.4
			s-24.899,57.398-57.399,57.398H38.3v19.102h439.9c42.101,0,76.5-34.4,76.5-76.5C554.7,378.699,520.2,344.301,478.101,344.301z"/>
		<path d="M420.801,516.4H153v19.1h267.8c11.5,0,19.1,7.6,19.1,19.1s-7.6,19.1-19.1,19.1s-19.101-7.6-19.101-19.1h-19.1
			c0,21,17.2,38.201,38.2,38.201S459,575.6,459,554.6S441.801,516.4,420.801,516.4z"/>
	</g>
</g>
<g>
</g>
<g>
</g>
<g>
</g>
<g>
</g>
<g>
</g>
<g>
</g>
<g>
</g>
<g>
</g>
<g>
</g>
<g>
</g>
<g>
</g>
<g>
</g>
<g>
</g>
<g>
</g>
<g>
</g>
</svg>
