<?xml version="1.0" encoding="iso-8859-1"?>
<!-- Generator: Adobe Illustrator 16.0.0, SVG Export Plug-In . SVG Version: 6.00 Build 0)  -->
<!DOCTYPE svg PUBLIC "-//W3C//DTD SVG 1.1//EN" "http://www.w3.org/Graphics/SVG/1.1/DTD/svg11.dtd">
<svg version="1.1" id="Capa_1" xmlns="http://www.w3.org/2000/svg" xmlns:xlink="http://www.w3.org/1999/xlink" x="0px" y="0px"
	 width="420.801px" height="420.8px" viewBox="0 0 420.801 420.8" style="enable-background:new 0 0 420.801 420.8;"
	 xml:space="preserve" fill="#f7f7f7">
<g>
	<g>
		<path d="M76.5,19.3C34.4,19.3,0,53.701,0,95.8c0,42.1,34.4,76.5,76.5,76.5S153,137.9,153,95.8C153,53.701,118.6,19.3,76.5,19.3z
			 M76.5,153.101c-32.5,0-57.4-24.9-57.4-57.4S44,38.3,76.5,38.3s57.4,24.9,57.4,57.4S109,153.101,76.5,153.101z"/>
		<path d="M411.199,134c5.701,0,9.602-3.8,9.602-9.6v-9.6c0-53.5-42.102-95.6-95.602-95.6H287c-53.5,0-95.6,42.1-95.6,95.6V306
			c0,53.5,42.1,95.6,95.6,95.6h38.199c53.5,0,95.602-42.1,95.602-95.6v-9.6c0-5.7-3.801-9.601-9.602-9.601
			c-5.799,0-9.6,3.8-9.6,9.601v9.6c0,42.1-34.4,76.5-76.5,76.5H286.9c-42.1,0-76.5-34.4-76.5-76.5V114.9
			c0-42.1,34.401-76.5,76.5-76.5H325.1c42.1,0,76.5,34.4,76.5,76.5v9.6C401.6,130.201,405.5,134,411.199,134z"/>
	</g>
</g>
<g>
</g>
<g>
</g>
<g>
</g>
<g>
</g>
<g>
</g>
<g>
</g>
<g>
</g>
<g>
</g>
<g>
</g>
<g>
</g>
<g>
</g>
<g>
</g>
<g>
</g>
<g>
</g>
<g>
</g>
</svg>
