<?xml version="1.0" encoding="iso-8859-1"?>
<!-- Generator: Adobe Illustrator 16.0.0, SVG Export Plug-In . SVG Version: 6.00 Build 0)  -->
<!DOCTYPE svg PUBLIC "-//W3C//DTD SVG 1.1//EN" "http://www.w3.org/Graphics/SVG/1.1/DTD/svg11.dtd">
<svg version="1.1" id="Capa_1" xmlns="http://www.w3.org/2000/svg" xmlns:xlink="http://www.w3.org/1999/xlink" x="0px" y="0px"
	 width="516.301px" height="516.301px" viewBox="0 0 516.301 516.301" style="enable-background:new 0 0 516.301 516.301;"
	 xml:space="preserve" fill="white">
<g>
	<path d="M459.101,237.101c0-57.4-47.801-103.3-105.2-103.3c-21,0-38.2,5.7-55.5,15.3c-24.9-32.5-63.1-53.5-107.1-53.5
		c-74.6,0-133.9,59.3-133.9,133.9c0,1.9,0,5.7,0,7.6c-34.4,15.3-57.4,47.801-57.4,88c0,53.5,42.1,95.6,95.6,95.6h325.1
		c53.5,0,95.6-42.1,95.6-95.6C516.5,284.901,493.5,252.401,459.101,237.101z M420.8,401.601H95.7c-42.1,0-76.5-34.4-76.5-76.5
		c0-36.301,24.9-66.9,59.3-74.6c-1.9-7.7-1.9-13.4-1.9-21c0-63.1,51.6-114.8,114.8-114.8c44,0,84.1,24.9,103.3,63.1
		c15.3-15.3,36.3-24.9,59.3-24.9c47.8,0,86.101,38.2,86.101,86.1c0,3.8,0,7.6,0,11.5c32.5,7.6,57.399,38.2,57.399,74.6
		C497.3,367.2,462.9,401.601,420.8,401.601z"/>
</g>
<g>
</g>
<g>
</g>
<g>
</g>
<g>
</g>
<g>
</g>
<g>
</g>
<g>
</g>
<g>
</g>
<g>
</g>
<g>
</g>
<g>
</g>
<g>
</g>
<g>
</g>
<g>
</g>
<g>
</g>
</svg>
