<?xml version="1.0" encoding="iso-8859-1"?>
<!-- Generator: Adobe Illustrator 16.0.0, SVG Export Plug-In . SVG Version: 6.00 Build 0)  -->
<!DOCTYPE svg PUBLIC "-//W3C//DTD SVG 1.1//EN" "http://www.w3.org/Graphics/SVG/1.1/DTD/svg11.dtd">
<svg version="1.1" id="Capa_1" xmlns="http://www.w3.org/2000/svg" xmlns:xlink="http://www.w3.org/1999/xlink" x="0px" y="0px"
	 width="516.301px" height="516.301px" viewBox="0 0 516.301 516.301" style="enable-background:new 0 0 516.301 516.301;"
	 xml:space="preserve" fill="white">
<g>
	<g>
		<path d="M439.801,210.351c0,5.7,3.799,9.6,9.6,9.6H487.6c5.701,0,9.6-3.8,9.6-9.6c0-5.8-3.799-9.6-9.6-9.6H449.4
			C443.699,200.75,439.801,206.55,439.801,210.351z"/>
		<path d="M416.9,122.351l26.799-26.8c3.801-3.8,3.801-9.6,0-13.4c-3.799-3.8-9.6-3.8-13.398,0l-26.801,26.8
			c-3.801,3.8-3.801,9.6,0,13.4C407.301,126.15,413.1,126.15,416.9,122.351z"/>
		<path d="M315.5,86.05c5.699,0,9.6-3.8,9.6-9.6v-38.2c0-5.7-3.799-9.6-9.6-9.6s-9.6,3.8-9.6,9.6v38.2
			C306,82.15,309.801,86.05,315.5,86.05z"/>
		<path d="M214.2,122.351c3.8,3.8,9.6,3.8,13.4,0c3.8-3.8,3.8-9.6,0-13.4l-26.8-26.8c-3.8-3.8-9.6-3.8-13.4,0
			c-3.8,3.8-3.8,9.6,0,13.4L214.2,122.351z"/>
		<path d="M459,304.051c0-32.5-15.301-61.2-38.199-80.3c0-3.8,0-9.6,0-13.4c0-57.4-47.801-105.2-105.201-105.2
			c-42.1,0-78.399,24.9-95.6,61.2c-9.6-1.9-19.1-3.8-28.7-3.8c-74.6,0-133.9,59.3-133.9,133.9c0,1.9,0,5.7,0,7.601
			c-34.4,15.3-57.4,47.8-57.4,88c0,53.5,42.1,95.6,95.6,95.6h325.099c53.5,0,95.602-42.1,95.602-95.6
			C516.4,351.851,493.4,319.351,459,304.051z M315.5,124.25c47.801,0,86.1,38.2,86.1,86.1v1.9c-15.299-7.7-30.6-11.5-47.799-11.5
			c-21,0-38.201,5.7-55.5,15.3C283,195.05,262,179.75,239,170.15C252.4,143.45,283,124.25,315.5,124.25z M420.699,468.551H95.6
			c-42.1,0-76.5-34.4-76.5-76.5c0-36.301,24.9-66.9,59.3-74.601c-1.9-7.7-1.9-13.399-1.9-21c0-63.1,51.6-114.8,114.8-114.8
			c44,0,84.1,24.9,103.299,63.1c15.301-15.3,36.301-24.9,59.301-24.9c47.799,0,86.1,38.2,86.1,86.1c0,3.8,0,7.601,0,11.5
			c32.5,7.601,57.4,38.2,57.4,74.601C497.199,434.15,462.801,468.551,420.699,468.551z"/>
	</g>
</g>
<g>
</g>
<g>
</g>
<g>
</g>
<g>
</g>
<g>
</g>
<g>
</g>
<g>
</g>
<g>
</g>
<g>
</g>
<g>
</g>
<g>
</g>
<g>
</g>
<g>
</g>
<g>
</g>
<g>
</g>
</svg>
