<?xml version="1.0" encoding="iso-8859-1"?>
<!-- Generator: Adobe Illustrator 16.0.0, SVG Export Plug-In . SVG Version: 6.00 Build 0)  -->
<!DOCTYPE svg PUBLIC "-//W3C//DTD SVG 1.1//EN" "http://www.w3.org/Graphics/SVG/1.1/DTD/svg11.dtd">
<svg version="1.1" id="Capa_1" xmlns="http://www.w3.org/2000/svg" xmlns:xlink="http://www.w3.org/1999/xlink" x="0px" y="0px"
	 width="573.8px" height="573.8px" viewBox="0 0 573.8 573.8" style="enable-background:new 0 0 573.8 573.8;" xml:space="preserve"
     fill="#f7f7f7"
	>
<g>
	<g>
		<path d="M242.95,93.7c3.8,3.8,9.6,3.8,13.4,0c3.8-3.8,3.8-9.6,0-13.4l-26.8-26.8c-3.8-3.8-9.6-3.8-13.4,0c-3.8,3.8-3.8,9.6,0,13.4
			L242.95,93.7z"/>
		<path d="M172.149,478.1c-5.7,0-9.6,3.801-9.6,9.601v38.2c0,5.699,3.8,9.6,9.6,9.6c5.8,0,9.6-3.8,9.6-9.6v-38.2
			C181.75,482,177.85,478.1,172.149,478.1z"/>
		<path d="M229.55,516.4c-5.7,0-9.6,3.8-9.6,9.6v38.2c0,5.7,3.8,9.6,9.6,9.6c5.8,0,9.6-3.8,9.6-9.6V526
			C239.149,520.2,235.25,516.4,229.55,516.4z"/>
		<path d="M468.55,181.7c0,5.7,3.799,9.6,9.6,9.6h38.199c5.701,0,9.6-3.8,9.6-9.6c0-5.8-3.799-9.6-9.6-9.6H478.15
			C472.449,172.1,468.55,177.9,468.55,181.7z"/>
		<path d="M445.65,93.7l26.799-26.8c3.801-3.8,3.801-9.6,0-13.4c-3.799-3.8-9.6-3.8-13.398,0L432.25,80.3
			c-3.801,3.8-3.801,9.6,0,13.4C436.05,97.5,441.849,97.5,445.65,93.7z"/>
		<path d="M344.25,57.4c5.699,0,9.6-3.8,9.6-9.6V9.6c0-5.7-3.799-9.6-9.6-9.6s-9.6,3.8-9.6,9.6v38.2
			C334.75,53.5,338.55,57.4,344.25,57.4z"/>
		<path d="M286.949,478.1c-5.699,0-9.6,3.801-9.6,9.601v38.2c0,5.699,3.8,9.6,9.6,9.6c5.8,0,9.601-3.8,9.601-9.6v-38.2
			C296.449,482,292.65,478.1,286.949,478.1z"/>
		<path d="M487.75,275.4c0-32.5-15.301-61.2-38.199-80.3c0-3.8,0-9.6,0-13.4c0-57.4-47.801-105.2-105.201-105.2
			c-42.1,0-78.399,24.9-95.6,61.2c-9.6-1.9-19.1-3.8-28.7-3.8c-74.6,0-133.9,59.3-133.9,133.9c0,1.9,0,5.7,0,7.6
			c-34.4,15.3-57.4,47.8-57.4,88c0,53.5,42.1,95.6,95.6,95.6h325.099c53.5,0,95.602-42.1,95.602-95.6
			C545.15,323.2,522.15,290.7,487.75,275.4z M344.25,95.6c47.801,0,86.1,38.2,86.1,86.1v1.9c-15.299-7.7-30.6-11.5-47.799-11.5
			c-21,0-38.201,5.7-55.5,15.3c-15.301-21-36.301-36.3-59.301-45.9C281.149,114.8,311.75,95.6,344.25,95.6z M449.449,439.9H124.35
			c-42.1,0-76.5-34.4-76.5-76.5c0-36.301,24.9-66.9,59.3-74.601c-1.9-7.7-1.9-13.4-1.9-21c0-63.1,51.6-114.8,114.8-114.8
			c44,0,84.1,24.9,103.299,63.1c15.301-15.3,36.301-24.9,59.301-24.9c47.799,0,86.1,38.2,86.1,86.1c0,3.8,0,7.6,0,11.5
			c32.5,7.601,57.4,38.2,57.4,74.601C525.949,405.5,491.55,439.9,449.449,439.9z"/>
		<path d="M401.65,478.1c-5.701,0-9.6,3.801-9.6,9.601v38.2c0,5.699,3.799,9.6,9.6,9.6c5.799,0,9.6-3.8,9.6-9.6v-38.2
			C411.25,482,407.349,478.1,401.65,478.1z"/>
		<path d="M344.25,516.4c-5.699,0-9.6,3.8-9.6,9.6v38.2c0,5.7,3.799,9.6,9.6,9.6s9.6-3.8,9.6-9.6V526
			C353.849,520.2,350.05,516.4,344.25,516.4z"/>
	</g>
</g>
<g>
</g>
<g>
</g>
<g>
</g>
<g>
</g>
<g>
</g>
<g>
</g>
<g>
</g>
<g>
</g>
<g>
</g>
<g>
</g>
<g>
</g>
<g>
</g>
<g>
</g>
<g>
</g>
<g>
</g>
</svg>
